# xmcd CD database file
#
# Track frame offsets:
#	150
#	25880
#	47932
#	71482
#	98117
#	120945
#	148682
#	166075
#	179675
#	193687
#	206835
#	223772
#	240757
#	262240
#
# Disc length: 3827 seconds
#
# Revision: 0
# Processed by: cddbd v1.5.2PL0 Copyright (c) Steve Scherf et al.
# Submitted via: CDex 1.70beta2
#
DISCID=cf0ef10e
DTITLE=Various Artist - Maestros De La Salsa Vol 1 CD1
DYEAR=1997
DGENRE=Salsa
TTITLE0=Eddie Palmieri Y Ismael Quintana - Adoracion
TTITLE1=Machito Y Su Orquesta Y Lalo Rodriguez - Mi Ritmo Llego
TTITLE2=Charlie Palmieri - Aunque Tu Mami No Quiera
TTITLE3=Cheo Feliciano and The Ceste All Stars - Jala Jala Con Aguardiente
TTITLE4=Raphy Leavitt - Jibaro Soy
TTITLE5=Orquesta Broadway - Sin Clave Y Bongo
TTITLE6=Ismael Rivera - El Negro Bembon
TTITLE7=Cortijo Y Su Combo - Watergate
TTITLE8=Richie Ray and Bobbie Cruz - Comejen
TTITLE9=Fajardo Y Sus Estrellas - Vamanos p'al Uno
TTITLE10=Eddie Palmieri and Friends - Pa' Huele
TTITLE11=Orquesta Zodiac - El Adios
TTITLE12=Willie Chirino - Arroz Con Manteca
TTITLE13=Orquesta La Selecta - Solitario
EXTD=YEAR: 1997
EXTT0=
EXTT1=
EXTT2=
EXTT3=
EXTT4=
EXTT5=
EXTT6=
EXTT7=
EXTT8=
EXTT9=
EXTT10=
EXTT11=
EXTT12=
EXTT13=
PLAYORDER=
